# File created by Blade
# Date/Time:  Wed Jan 21 17:16:13 2015
#---------------------------------------------------------
:version 1.10
:name HOM
:units
  mass 1.0
  length 1.000000
  angle deg
:documentation
     Acclaim Skeleton File
:root
   axis xyz
   order TX TY TZ RX RY RZ
   position 0.000000 0.000000 0.000000
   orientation 0 0 0
:bonedata
   begin
      id 1
      name Spine_dum
      direction 0.000000 1.000000 0.000000
      length 7.067664
      axis 0.0 0.0 0.0 xyz
   end
   begin
      id 2
      name LeftUpLeg_dum
      direction 1.000000 0.000000 0.000000
      length 4.013002
      axis 0.0 0.0 0.0 xyz
   end
   begin
      id 3
      name RightUpLeg_dum
      direction -1.000000 0.000000 0.000000
      length 4.013002
      axis 0.0 0.0 0.0 xyz
   end
   begin
      id 4
      name Spine
      direction 0.000000 1.000000 0.000000
      length 0.000000
      axis 0.0 0.0 0.0 xyz
      dof rx ry rz
   end
   begin
      id 5
      name Spine_dum1
      direction 0.000000 1.000000 0.000000
      length 15.039886
      axis 0.0 0.0 0.0 xyz
   end
   begin
      id 6
      name Spine_dum2
      direction 0.000000 1.000000 0.000000
      length 10.530368
      axis 0.0 0.0 0.0 xyz
   end
   begin
      id 7
      name Spine_dum3
      direction 0.000000 1.000000 0.000000
      length 10.530368
      axis 0.0 0.0 0.0 xyz
   end
   begin
      id 8
      name Head
      direction 0.000000 1.000000 0.000000
      length 4.527550
      axis 0.0 0.0 0.0 xyz
      dof rx ry rz
   end
   begin
      id 9
      name LeftShoulder
      direction 1.000000 0.000000 0.000000
      length 7.028855
      axis 0.0 0.0 -90.0 xyz
      dof rx ry rz
   end
   begin
      id 10
      name LeftArm
      direction 1.000000 0.000000 0.000000
      length 10.797705
      axis 0.0 0.0 -90.0 xyz
      dof rx ry rz
   end
   begin
      id 11
      name LeftForeArm
      direction 1.000000 0.000000 0.000000
      length 7.907442
      axis 0.0 0.0 -90.0 xyz
      dof ry rz rx
   end
   begin
      id 12
      name LeftHand
      direction 0.000000 0.000000 0.000000
      length 0.000000
      axis 0.0 0.0 -90.0 xyz
      dof rx ry rz
   end
   begin
      id 13
      name LeftHand_dum1
      direction 0.000000 0.000000 0.000000
      length 0.000000
      axis 0.0 0.0 -90.0 xyz
   end
   begin
      id 14
      name LeftHand_dum2
      direction 1.000000 0.000000 0.000000
      length 3.937000
      axis 0.0 0.0 -90.0 xyz
   end
   begin
      id 15
      name LeftHandThumb1
      direction 0.000000 0.000000 1.000000
      length 3.937000
      axis 0.0 0.0 -90.0 xyz
      dof rx rz ry
   end
   begin
      id 16
      name RightShoulder
      direction -1.000000 0.000000 0.000000
      length 7.028855
      axis 0.0 0.0 90.0 xyz
      dof rx ry rz
   end
   begin
      id 17
      name RightArm
      direction -1.000000 0.000000 0.000000
      length 10.797705
      axis 0.0 0.0 90.0 xyz
      dof rx ry rz
   end
   begin
      id 18
      name RightForeArm
      direction -1.000000 0.000000 0.000000
      length 7.907442
      axis 0.0 0.0 90.0 xyz
      dof ry rz rx
   end
   begin
      id 19
      name RightHand
      direction 0.000000 0.000000 0.000000
      length 0.000000
      axis 0.0 0.0 90.0 xyz
      dof rx ry rz
   end
   begin
      id 20
      name RightHand_dum1
      direction 0.000000 0.000000 0.000000
      length 0.000000
      axis 0.0 0.0 90.0 xyz
   end
   begin
      id 21
      name RightHand_dum2
      direction -1.000000 0.000000 0.000000
      length 3.937000
      axis 0.0 0.0 90.0 xyz
   end
   begin
      id 22
      name RightHandThumb1
      direction 0.000000 0.000000 1.000000
      length 3.937000
      axis 0.0 0.0 90.0 xyz
      dof rx rz ry
   end
   begin
      id 23
      name LeftUpLeg
      direction 0.000000 -1.000000 0.000000
      length 16.899758
      axis 0.0 0.0 0.0 xyz
      dof rx ry rz
   end
   begin
      id 24
      name LeftLeg
      direction 0.000000 -1.000000 0.000000
      length 17.389183
      axis 0.0 0.0 0.0 xyz
      dof rx ry rz
   end
   begin
      id 25
      name LeftFoot
      direction 0.000000 -0.258819 0.965926
      length 4.924528
      axis 15.0 0.0 0.0 xyz
      dof rx ry rz
   end
   begin
      id 26
      name LeftToeBase
      direction 0.000000 0.000000 1.000000
      length 2.952750
      axis 0.0 0.0 0.0 xyz
      dof rx ry rz
   end
   begin
      id 27
      name RightUpLeg
      direction 0.000000 -1.000000 0.000000
      length 16.899758
      axis 0.0 0.0 0.0 xyz
      dof rx ry rz
   end
   begin
      id 28
      name RightLeg
      direction 0.000000 -1.000000 0.000000
      length 17.389183
      axis 0.0 0.0 0.0 xyz
      dof rx ry rz
   end
   begin
      id 29
      name RightFoot
      direction 0.000000 -0.258819 0.965926
      length 4.924528
      axis 15.0 0.0 0.0 xyz
      dof rx ry rz
   end
   begin
      id 30
      name RightToeBase
      direction 0.000000 0.000000 1.000000
      length 2.952750
      axis 0.0 0.0 0.0 xyz
      dof rx ry rz
   end
:hierarchy
   begin
      root Spine_dum LeftUpLeg_dum RightUpLeg_dum
      Spine_dum Spine
      LeftUpLeg_dum LeftUpLeg
      RightUpLeg_dum RightUpLeg
      Spine Spine_dum1 Spine_dum2 Spine_dum3
      Spine_dum1 Head
      Spine_dum2 LeftShoulder
      Spine_dum3 RightShoulder
      LeftShoulder LeftArm
      LeftArm LeftForeArm
      LeftForeArm LeftHand
      LeftHand LeftHand_dum1 LeftHand_dum2
      LeftHand_dum1 LeftHandThumb1
      RightShoulder RightArm
      RightArm RightForeArm
      RightForeArm RightHand
      RightHand RightHand_dum1 RightHand_dum2
      RightHand_dum1 RightHandThumb1
      LeftUpLeg LeftLeg
      LeftLeg LeftFoot
      LeftFoot LeftToeBase
      RightUpLeg RightLeg
      RightLeg RightFoot
      RightFoot RightToeBase
   end

# File created by Blade
# Date/Time:  Wed Jan 21 17:16:23 2015
# Frame Rate: 120.000 fps
#------------------------------------------------------
:FULLY-SPECIFIED
:DEGREES
80
root 19.583177 35.441691 -22.355192 -175.456014 0.515747 -179.009211
Spine -14.227920 0.310487 -0.616960
Head 8.338397 -1.608932 2.106000
LeftShoulder -12.576913 -32.409985 21.037155
LeftArm 3.530433 3.456141 -5.796979
LeftForeArm 9.858956 0.000000 -2.998619
LeftHand -9.828028 -0.000000 -8.343762
LeftHandThumb1 -26.253704 0.000000 33.147579
RightShoulder -13.026141 -4.087545 -9.384480
RightArm 9.244530 34.353452 9.991898
RightForeArm -38.396460 0.000000 5.731465
RightHand -7.953951 0.000000 10.259301
RightHandThumb1 -24.326973 -0.000000 -32.862282
LeftUpLeg 6.599218 13.969687 2.307801
LeftLeg -6.528020 -0.000000 0.000000
LeftFoot -20.505937 24.498602 -14.177681
LeftToeBase 24.507461 -0.000000 -0.000000
RightUpLeg 4.576140 -7.684322 -0.370014
RightLeg -3.742834 -0.000000 0.000000
RightFoot -21.187369 -24.556423 14.950805
RightToeBase 25.065783 -0.000000 -0.000000
81
root 19.582302 35.442191 -22.353481 -175.457563 0.514514 -179.012122
Spine -14.225628 0.307286 -0.604265
Head 8.358883 -1.605474 2.083047
LeftShoulder -12.584347 -32.398213 21.031198
LeftArm 3.521624 3.457973 -5.795419
LeftForeArm 9.859501 -0.000000 -2.999795
LeftHand -9.836250 -0.000000 -8.313732
LeftHandThumb1 -26.253704 0.000000 33.147579
RightShoulder -13.038448 -4.066915 -9.408952
RightArm 9.239978 34.379455 9.987848
RightForeArm -38.380965 -0.000000 5.729485
RightHand -8.034748 -0.000000 10.238549
RightHandThumb1 -24.326973 -0.000000 -32.862282
LeftUpLeg 6.595525 13.966034 2.303892
LeftLeg -6.522904 -0.000000 0.000000
LeftFoot -20.501516 24.490252 -14.182614
LeftToeBase 24.492891 -0.000000 -0.000000
RightUpLeg 4.576004 -7.704880 -0.374006
RightLeg -3.747148 -0.000000 0.000000
RightFoot -21.179918 -24.543237 14.943582
RightToeBase 25.090092 -0.000000 -0.000000
82
root 19.582694 35.442610 -22.350661 -175.458333 0.517814 -179.011227
Spine -14.218651 0.303320 -0.592148
Head 8.364975 -1.595562 2.079300
LeftShoulder -12.605577 -32.383116 21.037519
LeftArm 3.521892 3.439289 -5.800670
LeftForeArm 9.826973 -0.000000 -3.014962
LeftHand -9.735100 -0.000000 -8.403673
LeftHandThumb1 -26.253704 0.000000 33.147579
RightShoulder -13.052148 -4.062926 -9.403152
RightArm 9.216689 34.365500 9.930033
RightForeArm -38.425480 -0.000000 5.762001
RightHand -8.036488 -0.000000 10.319828
RightHandThumb1 -24.326973 -0.000000 -32.862282
LeftUpLeg 6.598155 13.962151 2.304193
LeftLeg -6.534979 -0.000000 0.000000
LeftFoot -20.490273 24.493458 -14.179944
LeftToeBase 24.483407 -0.000000 -0.000000
RightUpLeg 4.572377 -7.713632 -0.373999
RightLeg -3.746947 -0.000000 0.000000
RightFoot -21.174986 -24.534894 14.937656
RightToeBase 25.064901 -0.000000 -0.000000
83
root 19.582967 35.442736 -22.347711 -175.459479 0.528602 -179.007790
Spine -14.211391 0.299351 -0.568929
Head 8.379488 -1.585976 2.042506
LeftShoulder -12.624259 -32.386342 21.033652
LeftArm 3.505811 3.445485 -5.785938
LeftForeArm 9.881486 -0.000000 -3.015427
LeftHand -9.738332 -0.000000 -8.370569
LeftHandThumb1 -26.253704 0.000000 33.147579
RightShoulder -13.041919 -4.056853 -9.419818
RightArm 9.155460 34.283299 9.867951
RightForeArm -38.262534 0.000000 5.769532
RightHand -8.016872 -0.000000 10.246311
RightHandThumb1 -24.326973 -0.000000 -32.862282
LeftUpLeg 6.594696 13.974020 2.306529
LeftLeg -6.532385 -0.000000 0.000000
LeftFoot -20.483873 24.502440 -14.160600
LeftToeBase 24.447732 -0.000000 -0.000000
RightUpLeg 4.565900 -7.695055 -0.369834
RightLeg -3.745419 -0.000000 0.000000
RightFoot -21.167107 -24.545955 14.923555
RightToeBase 25.077417 -0.000000 -0.000000
84
root 19.582491 35.443351 -22.344599 -175.462401 0.536064 -179.011820
Spine -14.204147 0.297435 -0.561980
Head 8.403928 -1.567072 2.040392
LeftShoulder -12.626402 -32.398663 21.030029
LeftArm 3.473756 3.470847 -5.767193
LeftForeArm 9.906766 0.000000 -3.002739
LeftHand -9.812405 -0.000000 -8.316040
LeftHandThumb1 -26.253704 0.000000 33.147579
RightShoulder -13.042670 -4.056010 -9.414383
RightArm 9.135252 34.297792 9.816814
RightForeArm -38.278466 0.000000 5.735997
RightHand -8.008518 -0.000000 10.184057
RightHandThumb1 -24.326973 -0.000000 -32.862282
LeftUpLeg 6.590188 13.965343 2.299965
LeftLeg -6.525266 -0.000000 0.000000
LeftFoot -20.488194 24.511774 -14.181833
LeftToeBase 24.466822 -0.000000 -0.000000
RightUpLeg 4.559921 -7.696563 -0.375794
RightLeg -3.740409 -0.000000 0.000000
RightFoot -21.162121 -24.532864 14.922925
RightToeBase 25.104609 -0.000000 -0.000000
85
root 19.582854 35.443710 -22.342563 -175.465600 0.532705 -179.012670
Spine -14.197303 0.291644 -0.548767
Head 8.418255 -1.557301 2.018665
LeftShoulder -12.643830 -32.374855 21.020579
LeftArm 3.495607 3.480184 -5.762738
LeftForeArm 9.898006 -0.000000 -2.996759
LeftHand -9.908429 -0.000000 -8.277712
LeftHandThumb1 -26.253704 0.000000 33.147579
RightShoulder -13.072504 -4.073279 -9.434755
RightArm 9.151091 34.374528 9.845846
RightForeArm -38.337090 -0.000000 5.774186
RightHand -8.091571 0.000000 10.169922
RightHandThumb1 -24.326973 -0.000000 -32.862282
LeftUpLeg 6.585053 13.980694 2.301901
LeftLeg -6.518334 -0.000000 0.000000
LeftFoot -20.484702 24.494889 -14.168261
LeftToeBase 24.516356 -0.000000 -0.000000
RightUpLeg 4.564875 -7.712248 -0.376113
RightLeg -3.750965 -0.000000 0.000000
RightFoot -21.148245 -24.528178 14.922168
RightToeBase 25.082775 -0.000000 -0.000000
